<svg width="15" height="10" viewBox="0 0 15 10" fill="none" xmlns="http://www.w3.org/2000/svg">
<path d="M12.9102 0H2.41016C1.44372 0 0.660156 0.74625 0.660156 1.66667V8.33333C0.660156 9.25375 1.44372 10 2.41016 10H12.9102C13.8766 10 14.6602 9.25375 14.6602 8.33333V1.66667C14.6602 0.74625 13.8766 0 12.9102 0ZM10.0297 4.44742L13.7339 1.42414C13.7595 1.50227 13.7852 1.58039 13.7852 1.66667V8.33333C13.7852 8.39112 13.7621 8.4424 13.7501 8.4969L10.0297 4.44742ZM12.9102 0.833333C12.9683 0.833333 13.0195 0.854505 13.0742 0.865078L7.66016 5.28484L2.24609 0.865078C2.30078 0.854505 2.35205 0.833333 2.41016 0.833333H12.9102ZM1.56977 8.49609C1.5578 8.44156 1.53516 8.39112 1.53516 8.33333V1.66667C1.53516 1.58039 1.56121 1.50227 1.58686 1.42414L5.28981 4.44661L1.56977 8.49609ZM2.41016 9.16667C2.32173 9.16667 2.24139 9.14224 2.16064 9.11865L5.95459 4.9894L7.37562 6.14906C7.45721 6.21664 7.5589 6.25 7.66016 6.25C7.76141 6.25 7.8631 6.21664 7.9447 6.14909L9.36572 4.98943L13.1597 9.11867C13.0794 9.14224 12.999 9.16667 12.9102 9.16667H2.41016Z" fill="#8E8E8E"/>
</svg>
