<svg width="15" height="17" viewBox="0 0 15 17" fill="none" xmlns="http://www.w3.org/2000/svg">
<path d="M7.66016 7C6.96792 7 6.29123 6.79473 5.71566 6.41014C5.14009 6.02556 4.69149 5.47894 4.42658 4.83939C4.16167 4.19985 4.09236 3.49612 4.22741 2.81719C4.36246 2.13825 4.6958 1.51461 5.18528 1.02513C5.67477 0.535644 6.29841 0.202301 6.97734 0.0672531C7.65628 -0.0677952 8.36001 0.00151649 8.99955 0.266423C9.63909 0.53133 10.1857 0.979934 10.5703 1.55551C10.9549 2.13108 11.1602 2.80777 11.1602 3.5C11.1602 4.42826 10.7914 5.3185 10.135 5.97487C9.47865 6.63125 8.58842 7 7.66016 7ZM7.66016 1.4C7.24482 1.4 6.8388 1.52316 6.49346 1.75392C6.14812 1.98467 5.87895 2.31264 5.72001 2.69637C5.56107 3.08009 5.51948 3.50233 5.60051 3.90969C5.68154 4.31705 5.88154 4.69124 6.17523 4.98493C6.46892 5.27862 6.84311 5.47862 7.25047 5.55965C7.65783 5.64068 8.08007 5.59909 8.46379 5.44015C8.84752 5.2812 9.17549 5.01204 9.40624 4.6667C9.63699 4.32136 9.76016 3.91534 9.76016 3.5C9.76016 2.94305 9.53891 2.4089 9.14508 2.01508C8.75126 1.62125 8.21711 1.4 7.66016 1.4Z" fill="#8E8E8E"/>
<path d="M13.9602 16.0992H1.36016C1.1745 16.0992 0.996457 16.0255 0.865181 15.8942C0.733906 15.7629 0.660156 15.5849 0.660156 15.3992V13.2992C0.660156 11.814 1.25015 10.3896 2.30036 9.33942C3.35056 8.28922 4.77494 7.69922 6.26016 7.69922H9.06016C10.5454 7.69922 11.9698 8.28922 13.02 9.33942C14.0702 10.3896 14.6602 11.814 14.6602 13.2992V15.3992C14.6602 15.5849 14.5864 15.7629 14.4551 15.8942C14.3239 16.0255 14.1458 16.0992 13.9602 16.0992ZM2.06016 14.6992H13.2602V13.2992C13.2602 12.1853 12.8177 11.117 12.03 10.3294C11.2424 9.54172 10.1741 9.09922 9.06016 9.09922H6.26016C5.14625 9.09922 4.07796 9.54172 3.29031 10.3294C2.50266 11.117 2.06016 12.1853 2.06016 13.2992V14.6992Z" fill="#8E8E8E"/>
</svg>
