<svg width="15" height="14" viewBox="0 0 15 14" fill="none" xmlns="http://www.w3.org/2000/svg">
<path d="M13.3066 12.8031L12.3786 13.7311C12.2128 13.896 11.7275 14.0003 11.7129 14.0003C8.77513 14.025 5.94673 12.8715 3.86815 10.7924C1.78362 8.70829 0.628758 5.86875 0.660806 2.92241C0.660806 2.92069 0.767205 2.44902 0.93256 2.28495L1.86057 1.35609C2.20109 1.016 2.85305 0.862187 3.3098 1.01428L3.50548 1.08007C3.96222 1.23217 4.43945 1.73632 4.56592 2.20031L5.03332 3.91531C5.16021 4.38018 4.98974 5.04154 4.64965 5.38163L4.02927 6.00201C4.6377 8.25707 6.40607 10.025 8.65984 10.6343L9.28022 10.0139C9.62034 9.67378 10.2834 9.50375 10.7483 9.63022L12.4633 10.0985C12.9265 10.2241 13.4306 10.7009 13.5836 11.1581L13.6485 11.3537C13.8005 11.811 13.6467 12.463 13.3066 12.8031ZM8.53507 7.00013H9.41008C9.41008 6.03367 8.62651 5.2501 7.66006 5.2501V6.12511C8.1424 6.12511 8.53507 6.51817 8.53507 7.00013ZM12.0351 7.00013C12.0351 4.58357 10.0766 2.62504 7.66006 2.62504V3.50008C9.59037 3.50008 11.1601 5.07066 11.1601 7.00013H12.0351ZM7.66006 0V0.875012C11.0371 0.875012 13.7851 3.6231 13.7851 7.00013H14.6602C14.6602 3.13434 11.5258 0 7.66006 0Z" fill="#8E8E8E"/>
</svg>
