<svg width="22" height="22" viewBox="0 0 22 22" fill="none" xmlns="http://www.w3.org/2000/svg">
<path d="M9.92875 18.7262L12.7729 15.89L17.4731 19.159L16.4188 20.2105C15.7165 20.9108 14.6856 21.1707 13.7339 20.8872C10.8246 20.0204 8.21106 18.4314 5.89338 16.1202C3.5757 13.8089 1.9823 11.2027 1.11317 8.30139C0.828861 7.35238 1.08941 6.32434 1.79171 5.62398L2.84608 4.57254L6.12423 9.25974L3.28008 12.096M13.7706 12.5336L13.8082 11.9987C13.9704 9.69309 11.9972 7.80497 9.69385 8.06167M17.0611 12.9214L17.1291 11.9546C17.4221 7.78813 13.8564 4.37604 9.69391 4.83993M20.8712 13.3253L20.9744 11.8586C21.419 5.53724 16.009 0.360418 9.69379 1.06423" stroke="#FBD846" stroke-width="2"/>
</svg>
