<svg width="17" height="17" viewBox="0 0 17 17" fill="none" xmlns="http://www.w3.org/2000/svg">
<path d="M6.75028 0.380859C10.4197 0.380859 13.3924 3.35359 13.3924 7.02301C13.3924 8.60915 12.8378 10.0634 11.9111 11.2065L16.4768 15.7721C16.7473 16.0427 16.7473 16.4789 16.4768 16.7495C16.2062 17.0201 15.7699 17.0201 15.4994 16.7495L10.9338 12.1839C9.79065 13.1105 8.33641 13.6652 6.75028 13.6652C3.08086 13.6652 0.108124 10.6924 0.108124 7.02301C0.108124 3.35359 3.08424 0.380859 6.75028 0.380859ZM6.75028 12.2853C9.65537 12.2853 12.0126 9.92811 12.0126 7.02301C12.0126 4.11792 9.65537 1.7607 6.75028 1.7607C3.84518 1.7607 1.48796 4.11792 1.48796 7.02301C1.48796 9.92811 3.84518 12.2853 6.75028 12.2853Z" fill="#FBD846"/>
</svg>
